<svg xmlns="http://www.w3.org/2000/svg" version="1.1" xmlns:xlink="http://www.w3.org/1999/xlink" width="1000" height="1000"><style>
    #light-icon {
      display: inline;
    }
    #dark-icon {
      display: none;
    }

    @media (prefers-color-scheme: dark) {
      #light-icon {
        display: none;
      }
      #dark-icon {
        display: inline;
      }
    }
  </style><g id="light-icon"><svg xmlns="http://www.w3.org/2000/svg" version="1.1" xmlns:xlink="http://www.w3.org/1999/xlink" width="1000" height="1000"><g clip-path="url(#SvgjsClipPath1047)"><rect width="1000" height="1000" fill="#0a0e27"></rect><g transform="matrix(37.79527749519509,0,0,37.79527749519509,124.99998110236123,0)"><svg xmlns="http://www.w3.org/2000/svg" version="1.1" xmlns:xlink="http://www.w3.org/1999/xlink" width="19.84375" height="26.458332"><svg viewBox="0 0 19.84375 26.458332" xmlns="http://www.w3.org/2000/svg">
  <g transform="translate(-118.79792,-70.379167)">
   <path d="m 120.95334,70.379167 -0.56637,6.954097 h 7.53339 l -0.20205,2.601392 h -5.05809 l -0.60668,7.803141 h 5.05757 l -0.20206,2.600358 h -7.58145 l -0.52968,6.499345 h 17.68833 l 0.95291,-11.700578 h -4.97696 l -0.40462,5.201233 h -2.52905 l 0.60668,-7.802624 h 5.05809 l 0.20257,-2.600875 h -5.05809 l 0.20206,-2.601392 h 7.53546 l 0.56637,-6.954097 z" style="fill:#ff6c37;fill-opacity:1"></path>
  </g>
</svg></svg></g></g><defs><clipPath id="SvgjsClipPath1047"><rect width="1000" height="1000" x="0" y="0" rx="350" ry="350"></rect></clipPath></defs></svg></g><g id="dark-icon"><svg xmlns="http://www.w3.org/2000/svg" version="1.1" xmlns:xlink="http://www.w3.org/1999/xlink" width="1000" height="1000"><g clip-path="url(#SvgjsClipPath1048)"><rect width="1000" height="1000" fill="#0a0e27"></rect><g transform="matrix(37.79527749519509,0,0,37.79527749519509,124.99998110236123,0)"><svg xmlns="http://www.w3.org/2000/svg" version="1.1" xmlns:xlink="http://www.w3.org/1999/xlink" width="19.84375" height="26.458332"><svg viewBox="0 0 19.84375 26.458332" xmlns="http://www.w3.org/2000/svg">
  <g transform="translate(-118.79792,-70.379167)">
   <path d="m 120.95334,70.379167 -0.56637,6.954097 h 7.53339 l -0.20205,2.601392 h -5.05809 l -0.60668,7.803141 h 5.05757 l -0.20206,2.600358 h -7.58145 l -0.52968,6.499345 h 17.68833 l 0.95291,-11.700578 h -4.97696 l -0.40462,5.201233 h -2.52905 l 0.60668,-7.802624 h 5.05809 l 0.20257,-2.600875 h -5.05809 l 0.20206,-2.601392 h 7.53546 l 0.56637,-6.954097 z" style="fill:#ff6c37;fill-opacity:1"></path>
  </g>
</svg></svg></g></g><defs><clipPath id="SvgjsClipPath1048"><rect width="1000" height="1000" x="0" y="0" rx="350" ry="350"></rect></clipPath></defs></svg></g></svg>